<svg xmlns="http://www.w3.org/2000/svg" viewBox="0 0 1600 900"><defs><linearGradient id="bg" x2="0" y2="1"><stop stop-color="#123b4f"/><stop offset="1" stop-color="#0a1722"/></linearGradient></defs><rect width="1600" height="900" fill="url(#bg)"/><g fill="#10283a" stroke="#3a7794" stroke-width="6"><rect x="100" y="130" width="400" height="500" rx="24"/><rect x="600" y="100" width="400" height="530" rx="24"/><rect x="1100" y="130" width="400" height="500" rx="24"/></g><g fill="#63dbc0"><rect x="160" y="210" width="270" height="28" rx="14"/><rect x="660" y="190" width="270" height="28" rx="14"/><rect x="1160" y="210" width="270" height="28" rx="14"/></g><g stroke="#7ca4ff" stroke-width="9" fill="none"><path d="M170 480c80-100 150 80 250-70"/><path d="M670 470c85-150 155 120 250-90"/><path d="M1170 470c75-90 160 65 250-80"/></g><g fill="#ff6b78"><circle cx="455" cy="190" r="18"/><circle cx="955" cy="170" r="18"/></g><rect x="350" y="700" width="900" height="90" rx="22" fill="#19364c"/></svg>