<svg xmlns="http://www.w3.org/2000/svg" viewBox="0 0 512 512"><defs><linearGradient id="b" x1="0" y1="0" x2="1" y2="1"><stop stop-color="#f6c36f"/><stop offset="1" stop-color="#c86c37"/></linearGradient></defs><rect width="512" height="512" rx="72" fill="url(#b)"/><circle cx="430" cy="92" r="58" fill="#fff" opacity=".16"/><path d="M0 400c90-72 173-101 259-87 89 14 168 60 253 111v88H0z" fill="#724124" opacity=".38"/><path d="M112 512c8-112 59-173 144-173s136 61 144 173" fill="#1f4c83"/><path d="M156 386c22-34 61-53 100-53s79 20 101 54l-40 125H196z" fill="#f28d26"/><rect x="230" y="317" width="52" height="55" rx="22" fill="#b96d47"/><ellipse cx="256" cy="230" rx="105" ry="119" fill="#c97b50"/><path d="M160 220c3-100 51-146 102-146 65 0 105 47 105 127-34-32-70-44-114-38-38 5-65 21-93 57z" fill="#3b241d"/><path d="M150 152c24-57 68-87 114-87 53 0 98 32 116 88l-21 18H168z" fill="#f6b51f"/><path d="M160 139h207l-12-29c-62-29-128-27-182 2z" fill="#ffc928"/><rect x="231" y="62" width="55" height="43" rx="18" fill="#263d57"/><circle cx="258" cy="83" r="16" fill="#f6f7f5"/><ellipse cx="219" cy="231" rx="10" ry="14" fill="#222"/><ellipse cx="301" cy="231" rx="10" ry="14" fill="#222"/><path d="M223 282c28 24 61 24 88-1" fill="none" stroke="#6c2f26" stroke-width="10" stroke-linecap="round"/><path d="M191 206c16-12 33-15 51-8M281 198c18-6 35-4 50 8" fill="none" stroke="#3b241d" stroke-width="10" stroke-linecap="round"/><path d="M150 510l22-126h41l17 126M362 510l-22-126h-41l-17 126" fill="#18385e"/><path d="M133 162l-59 230" stroke="#4a3422" stroke-width="18" stroke-linecap="round"/><path d="M55 172l150 38" stroke="#333" stroke-width="22" stroke-linecap="round"/></svg>