<svg xmlns="http://www.w3.org/2000/svg" viewBox="0 0 220 220" role="img" aria-labelledby="t d"><title id="t">مسؤولة إصدار</title><desc id="d">رسم كرتوني مبسط لمسؤولة إصدار تحمل لوحة تخطيط.</desc><rect width="220" height="220" rx="36" fill="#17263e"/><circle cx="108" cy="76" r="40" fill="#d49a72"/><path d="M69 71c4-32 23-51 42-51 27 0 45 22 45 54-12-8-25-12-42-13-16-1-31 3-45 10z" fill="#4b2f42"/><circle cx="94" cy="78" r="4" fill="#251f27"/><circle cx="124" cy="78" r="4" fill="#251f27"/><path d="M96 99c8 6 18 6 26 0" fill="none" stroke="#8a4c3a" stroke-width="5" stroke-linecap="round"/><path d="M44 204c5-51 31-78 65-78 35 0 61 27 66 78" fill="#3b5476"/><rect x="118" y="132" width="60" height="61" rx="8" fill="#f2c95c"/><path d="M128 147h38M128 160h30M128 173h34" stroke="#38445d" stroke-width="5" stroke-linecap="round"/></svg>